<?xml version="1.0" standalone="no"?>
<!DOCTYPE svg PUBLIC "-//W3C//DTD SVG 20010904//EN"
 "http://www.w3.org/TR/2001/REC-SVG-20010904/DTD/svg10.dtd">
<svg version="1.0" xmlns="http://www.w3.org/2000/svg"
 width="144.000000pt" height="144.000000pt" viewBox="0 0 144.000000 144.000000"
 preserveAspectRatio="xMidYMid meet">

<g transform="translate(0.000000,144.000000) scale(0.100000,-0.100000)"
fill="#000000" stroke="none">
<path d="M727 1397 c-25 -21 -27 -30 -37 -142 -17 -186 -24 -759 -12 -945 6
-90 9 -166 7 -169 -3 -2 -13 16 -24 40 -97 219 -108 239 -125 226 -16 -11 -14
-21 19 -117 48 -137 87 -220 114 -244 21 -19 21 -19 48 5 26 24 136 239 127
248 -12 12 -55 -50 -84 -122 -18 -42 -35 -77 -39 -77 -4 0 -13 6 -19 12 -10
10 -8 16 9 29 l22 17 2 478 c1 290 6 538 14 627 7 82 11 150 9 152 -2 2 -16
-6 -31 -18z"/>
</g>
</svg>
